<svg width="60" height="60" viewBox="0 0 60 60" fill="none" xmlns="http://www.w3.org/2000/svg">
<rect width="60" height="60" rx="30" fill="#F6F6F6"/>
<path fill-rule="evenodd" clip-rule="evenodd" d="M17.25 20.75C17.25 20.2859 17.4344 19.8408 17.7626 19.5126C18.0908 19.1844 18.5359 19 19 19H40C40.4641 19 40.9093 19.1844 41.2374 19.5126C41.5656 19.8408 41.75 20.2859 41.75 20.75C41.75 21.2141 41.5656 21.6592 41.2374 21.9874C40.9093 22.3156 40.4641 22.5 40 22.5H19C18.5359 22.5 18.0908 22.3156 17.7626 21.9874C17.4344 21.6592 17.25 21.2141 17.25 20.75ZM17.25 29.5C17.25 29.0359 17.4344 28.5908 17.7626 28.2626C18.0908 27.9344 18.5359 27.75 19 27.75H40C40.4641 27.75 40.9093 27.9344 41.2374 28.2626C41.5656 28.5908 41.75 29.0359 41.75 29.5C41.75 29.9641 41.5656 30.4092 41.2374 30.7374C40.9093 31.0656 40.4641 31.25 40 31.25H19C18.5359 31.25 18.0908 31.0656 17.7626 30.7374C17.4344 30.4092 17.25 29.9641 17.25 29.5ZM17.25 38.25C17.25 37.7859 17.4344 37.3408 17.7626 37.0126C18.0908 36.6844 18.5359 36.5 19 36.5H29.5C29.9641 36.5 30.4092 36.6844 30.7374 37.0126C31.0656 37.3408 31.25 37.7859 31.25 38.25C31.25 38.7141 31.0656 39.1592 30.7374 39.4874C30.4092 39.8156 29.9641 40 29.5 40H19C18.5359 40 18.0908 39.8156 17.7626 39.4874C17.4344 39.1592 17.25 38.7141 17.25 38.25Z" fill="black"/>
</svg>
