<svg width="60" height="60" viewBox="0 0 60 60" fill="none" xmlns="http://www.w3.org/2000/svg">
<rect width="60" height="60" rx="30" fill="#F5F5F5"/>
<path d="M37.6042 33.4167H36.4521L36.0438 33.0229C37.5224 31.308 38.3351 29.1185 38.3333 26.8542C38.3333 24.9794 37.7774 23.1467 36.7358 21.5878C35.6942 20.029 34.2138 18.814 32.4817 18.0966C30.7496 17.3791 28.8437 17.1914 27.0049 17.5571C25.1661 17.9229 23.4771 18.8257 22.1514 20.1514C20.8257 21.4771 19.9229 23.1661 19.5571 25.0049C19.1914 26.8437 19.3791 28.7496 20.0966 30.4817C20.814 32.2138 22.029 33.6942 23.5878 34.7358C25.1467 35.7774 26.9794 36.3333 28.8542 36.3333C31.2021 36.3333 33.3604 35.4729 35.0229 34.0438L35.4167 34.4521V35.6042L42.7083 42.8813L44.8813 40.7083L37.6042 33.4167ZM28.8542 33.4167C25.2229 33.4167 22.2917 30.4854 22.2917 26.8542C22.2917 23.2229 25.2229 20.2917 28.8542 20.2917C32.4854 20.2917 35.4167 23.2229 35.4167 26.8542C35.4167 30.4854 32.4854 33.4167 28.8542 33.4167Z" fill="black"/>
</svg>
